# MagicaVoxel @ Ephtracy

# group
g school

# material
mtllib school.mtl
usemtl palette

# normals
vn -1 0 0
vn 1 0 0
vn 0 -1 0
vn 0 1 0
vn 0 0 -1
vn 0 0 1

# texcoords
vt 0.0449219 0.5
vt 0.0917969 0.5
vt 0.232422 0.5
vt 0.396484 0.5
vt 0.564453 0.5
vt 0.591797 0.5
vt 0.888672 0.5

# verts
v 0 0 30
v 0 17 30
v 0 19 30
v 0 17 31
v 0 19 31
v 0 0 41
v 0 17 41
v 0 0 42
v 0 17 42
v 1 17 31
v 1 18 31
v 1 17 32
v 1 18 32
v 4 17 31
v 4 18 31
v 4 17 32
v 4 18 32
v 7 17 31
v 7 18 31
v 7 17 32
v 7 18 32
v 10 16 33
v 10 17 33
v 10 16 36
v 10 17 36
v 10 16 37
v 10 17 37
v 10 16 40
v 10 17 40
v 14 16 30
v 14 17 30
v 14 16 34
v 14 17 34
v 14 16 35
v 14 17 35
v 14 16 40
v 14 17 40
v 15 17 30
v 15 19 30
v 15 17 31
v 15 19 31
v 16 17 31
v 16 18 31
v 16 17 32
v 16 18 32
v 19 17 31
v 19 18 31
v 19 17 32
v 19 18 32
v 22 17 31
v 22 18 31
v 22 17 32
v 22 18 32
v 24 16 33
v 24 17 33
v 24 16 36
v 24 17 36
v 24 16 37
v 24 17 37
v 24 16 40
v 24 17 40
v 24 1 41
v 24 16 41
v 24 1 42
v 24 16 42
v 1 16 33
v 1 17 33
v 1 16 36
v 1 17 36
v 1 16 37
v 1 17 37
v 1 16 40
v 1 17 40
v 1 1 41
v 1 16 41
v 1 1 42
v 1 16 42
v 3 17 31
v 3 18 31
v 3 17 32
v 3 18 32
v 6 17 31
v 6 18 31
v 6 17 32
v 6 18 32
v 9 17 31
v 9 18 31
v 9 17 32
v 9 18 32
v 10 17 30
v 10 19 30
v 10 17 31
v 10 19 31
v 11 16 30
v 11 17 30
v 11 16 31
v 11 16 32
v 11 16 34
v 11 17 34
v 11 16 35
v 11 17 35
v 11 16 38
v 11 16 40
v 11 17 40
v 15 16 33
v 15 17 33
v 15 16 36
v 15 17 36
v 15 16 37
v 15 17 37
v 15 16 40
v 15 17 40
v 18 17 31
v 18 18 31
v 18 17 32
v 18 18 32
v 21 17 31
v 21 18 31
v 21 17 32
v 21 18 32
v 24 17 31
v 24 18 31
v 24 17 32
v 24 18 32
v 25 0 30
v 25 17 30
v 25 19 30
v 25 17 31
v 25 19 31
v 25 0 41
v 25 17 41
v 25 0 42
v 25 17 42
v 0 0 30
v 0 0 41
v 0 0 42
v 25 0 30
v 25 0 41
v 25 0 42
v 1 16 41
v 1 16 42
v 24 16 41
v 24 16 42
v 1 1 41
v 1 1 42
v 24 1 41
v 24 1 42
v 1 16 33
v 1 16 36
v 1 16 37
v 1 16 40
v 2 16 33
v 2 16 34
v 2 16 37
v 2 16 38
v 3 16 34
v 3 16 35
v 3 16 38
v 3 16 39
v 4 16 35
v 4 16 36
v 4 16 39
v 4 16 40
v 10 16 33
v 10 16 36
v 10 16 37
v 10 16 40
v 11 16 30
v 11 16 31
v 11 16 32
v 11 16 34
v 11 16 35
v 11 16 38
v 11 16 40
v 12 16 31
v 12 16 32
v 12 16 38
v 12 16 39
v 13 16 39
v 13 16 40
v 14 16 30
v 14 16 34
v 14 16 35
v 14 16 40
v 15 16 33
v 15 16 36
v 15 16 37
v 15 16 40
v 16 16 33
v 16 16 34
v 16 16 37
v 16 16 38
v 17 16 34
v 17 16 35
v 17 16 38
v 17 16 39
v 18 16 35
v 18 16 36
v 18 16 39
v 18 16 40
v 24 16 33
v 24 16 36
v 24 16 37
v 24 16 40
v 0 17 31
v 0 17 41
v 0 17 42
v 1 17 31
v 1 17 32
v 1 17 33
v 1 17 36
v 1 17 37
v 1 17 40
v 3 17 31
v 3 17 32
v 4 17 31
v 4 17 32
v 6 17 31
v 6 17 32
v 7 17 31
v 7 17 32
v 9 17 31
v 9 17 32
v 10 17 30
v 10 17 31
v 10 17 33
v 10 17 36
v 10 17 37
v 10 17 40
v 11 17 30
v 11 17 34
v 11 17 35
v 11 17 40
v 14 17 30
v 14 17 34
v 14 17 35
v 14 17 40
v 15 17 30
v 15 17 31
v 15 17 33
v 15 17 36
v 15 17 37
v 15 17 40
v 16 17 31
v 16 17 32
v 18 17 31
v 18 17 32
v 19 17 31
v 19 17 32
v 21 17 31
v 21 17 32
v 22 17 31
v 22 17 32
v 24 17 31
v 24 17 32
v 24 17 33
v 24 17 36
v 24 17 37
v 24 17 40
v 25 17 31
v 25 17 41
v 25 17 42
v 1 18 31
v 1 18 32
v 3 18 31
v 3 18 32
v 4 18 31
v 4 18 32
v 6 18 31
v 6 18 32
v 7 18 31
v 7 18 32
v 9 18 31
v 9 18 32
v 16 18 31
v 16 18 32
v 18 18 31
v 18 18 32
v 19 18 31
v 19 18 32
v 21 18 31
v 21 18 32
v 22 18 31
v 22 18 32
v 24 18 31
v 24 18 32
v 0 19 30
v 0 19 31
v 10 19 30
v 10 19 31
v 15 19 30
v 15 19 31
v 25 19 30
v 25 19 31
v 0 0 30
v 25 0 30
v 11 15 30
v 14 15 30
v 11 16 30
v 14 16 30
v 0 17 30
v 10 17 30
v 11 17 30
v 14 17 30
v 15 17 30
v 25 17 30
v 0 19 30
v 10 19 30
v 15 19 30
v 25 19 30
v 11 16 34
v 14 16 34
v 11 17 34
v 14 17 34
v 1 16 36
v 4 16 36
v 10 16 36
v 15 16 36
v 18 16 36
v 24 16 36
v 1 17 36
v 10 17 36
v 15 17 36
v 24 17 36
v 1 16 40
v 4 16 40
v 10 16 40
v 11 16 40
v 13 16 40
v 14 16 40
v 15 16 40
v 18 16 40
v 24 16 40
v 1 17 40
v 10 17 40
v 11 17 40
v 14 17 40
v 15 17 40
v 24 17 40
v 0 17 31
v 1 17 31
v 3 17 31
v 4 17 31
v 6 17 31
v 7 17 31
v 9 17 31
v 10 17 31
v 15 17 31
v 16 17 31
v 18 17 31
v 19 17 31
v 21 17 31
v 22 17 31
v 24 17 31
v 25 17 31
v 1 18 31
v 3 18 31
v 4 18 31
v 6 18 31
v 7 18 31
v 9 18 31
v 16 18 31
v 18 18 31
v 19 18 31
v 21 18 31
v 22 18 31
v 24 18 31
v 0 19 31
v 10 19 31
v 15 19 31
v 25 19 31
v 1 17 32
v 3 17 32
v 4 17 32
v 6 17 32
v 7 17 32
v 9 17 32
v 16 17 32
v 18 17 32
v 19 17 32
v 21 17 32
v 22 17 32
v 24 17 32
v 1 18 32
v 3 18 32
v 4 18 32
v 6 18 32
v 7 18 32
v 9 18 32
v 16 18 32
v 18 18 32
v 19 18 32
v 21 18 32
v 22 18 32
v 24 18 32
v 1 16 33
v 2 16 33
v 10 16 33
v 15 16 33
v 16 16 33
v 24 16 33
v 1 17 33
v 10 17 33
v 15 17 33
v 24 17 33
v 11 16 35
v 14 16 35
v 11 17 35
v 14 17 35
v 1 16 37
v 2 16 37
v 10 16 37
v 15 16 37
v 16 16 37
v 24 16 37
v 1 17 37
v 10 17 37
v 15 17 37
v 24 17 37
v 1 1 41
v 24 1 41
v 1 16 41
v 24 16 41
v 0 0 42
v 25 0 42
v 1 1 42
v 24 1 42
v 1 16 42
v 24 16 42
v 0 17 42
v 25 17 42

# faces
f 4/1/1 2/1/1 1/1/1
f 4/2/1 3/2/1 2/2/1
f 5/2/1 3/2/1 4/2/1
f 6/1/1 4/1/1 1/1/1
f 7/1/1 4/1/1 6/1/1
f 8/2/1 7/2/1 6/2/1
f 9/2/1 7/2/1 8/2/1
f 12/7/1 11/7/1 10/7/1
f 13/7/1 11/7/1 12/7/1
f 16/7/1 15/7/1 14/7/1
f 17/7/1 15/7/1 16/7/1
f 20/7/1 19/7/1 18/7/1
f 21/7/1 19/7/1 20/7/1
f 24/1/1 23/1/1 22/1/1
f 25/1/1 23/1/1 24/1/1
f 28/1/1 27/1/1 26/1/1
f 29/1/1 27/1/1 28/1/1
f 32/1/1 31/1/1 30/1/1
f 33/1/1 31/1/1 32/1/1
f 36/1/1 35/1/1 34/1/1
f 37/1/1 35/1/1 36/1/1
f 40/2/1 39/2/1 38/2/1
f 41/2/1 39/2/1 40/2/1
f 44/7/1 43/7/1 42/7/1
f 45/7/1 43/7/1 44/7/1
f 48/7/1 47/7/1 46/7/1
f 49/7/1 47/7/1 48/7/1
f 52/7/1 51/7/1 50/7/1
f 53/7/1 51/7/1 52/7/1
f 56/1/1 55/1/1 54/1/1
f 57/1/1 55/1/1 56/1/1
f 60/1/1 59/1/1 58/1/1
f 61/1/1 59/1/1 60/1/1
f 64/2/1 63/2/1 62/2/1
f 65/2/1 63/2/1 64/2/1
f 66/1/2 67/1/2 68/1/2
f 68/1/2 67/1/2 69/1/2
f 70/1/2 71/1/2 72/1/2
f 72/1/2 71/1/2 73/1/2
f 74/2/2 75/2/2 76/2/2
f 76/2/2 75/2/2 77/2/2
f 78/7/2 79/7/2 80/7/2
f 80/7/2 79/7/2 81/7/2
f 82/7/2 83/7/2 84/7/2
f 84/7/2 83/7/2 85/7/2
f 86/7/2 87/7/2 88/7/2
f 88/7/2 87/7/2 89/7/2
f 90/2/2 91/2/2 92/2/2
f 92/2/2 91/2/2 93/2/2
f 94/1/2 95/1/2 96/1/2
f 96/1/2 95/1/2 97/1/2
f 97/1/2 95/1/2 98/1/2
f 98/1/2 95/1/2 99/1/2
f 100/1/2 101/1/2 102/1/2
f 102/1/2 101/1/2 103/1/2
f 103/1/2 101/1/2 104/1/2
f 105/1/2 106/1/2 107/1/2
f 107/1/2 106/1/2 108/1/2
f 109/1/2 110/1/2 111/1/2
f 111/1/2 110/1/2 112/1/2
f 113/7/2 114/7/2 115/7/2
f 115/7/2 114/7/2 116/7/2
f 117/7/2 118/7/2 119/7/2
f 119/7/2 118/7/2 120/7/2
f 121/7/2 122/7/2 123/7/2
f 123/7/2 122/7/2 124/7/2
f 125/1/2 126/1/2 128/1/2
f 126/2/2 127/2/2 128/2/2
f 128/2/2 127/2/2 129/2/2
f 125/1/2 128/1/2 130/1/2
f 130/1/2 128/1/2 131/1/2
f 130/2/2 131/2/2 132/2/2
f 132/2/2 131/2/2 133/2/2
f 137/1/3 135/1/3 134/1/3
f 138/2/3 136/2/3 135/2/3
f 138/1/3 135/1/3 137/1/3
f 139/2/3 136/2/3 138/2/3
f 142/2/3 141/2/3 140/2/3
f 143/2/3 141/2/3 142/2/3
f 144/2/4 145/2/4 146/2/4
f 146/2/4 145/2/4 147/2/4
f 148/5/4 149/5/4 152/5/4
f 152/5/4 149/5/4 153/5/4
f 150/5/4 151/5/4 154/5/4
f 154/5/4 151/5/4 155/5/4
f 153/5/4 149/5/4 156/5/4
f 152/6/4 153/6/4 156/6/4
f 156/5/4 149/5/4 157/5/4
f 155/5/4 151/5/4 158/5/4
f 154/6/4 155/6/4 158/6/4
f 158/5/4 151/5/4 159/5/4
f 157/5/4 149/5/4 160/5/4
f 156/6/4 157/6/4 160/6/4
f 160/5/4 149/5/4 161/5/4
f 159/5/4 151/5/4 162/5/4
f 158/6/4 159/6/4 162/6/4
f 162/5/4 151/5/4 163/5/4
f 160/6/4 161/6/4 164/6/4
f 156/6/4 160/6/4 164/6/4
f 152/6/4 156/6/4 164/6/4
f 164/6/4 161/6/4 165/6/4
f 162/6/4 163/6/4 166/6/4
f 158/6/4 162/6/4 166/6/4
f 154/6/4 158/6/4 166/6/4
f 166/6/4 163/6/4 167/6/4
f 168/3/4 169/3/4 175/3/4
f 169/4/4 170/4/4 175/4/4
f 170/3/4 171/3/4 176/3/4
f 175/4/4 170/4/4 176/4/4
f 173/5/4 174/5/4 177/5/4
f 172/6/4 173/6/4 177/6/4
f 177/5/4 174/5/4 178/5/4
f 177/6/4 178/6/4 179/6/4
f 178/5/4 174/5/4 179/5/4
f 179/5/4 174/5/4 180/5/4
f 175/3/4 176/3/4 181/3/4
f 168/3/4 175/3/4 181/3/4
f 176/3/4 171/3/4 182/3/4
f 181/3/4 176/3/4 182/3/4
f 179/6/4 180/6/4 183/6/4
f 172/6/4 177/6/4 183/6/4
f 177/6/4 179/6/4 183/6/4
f 183/6/4 180/6/4 184/6/4
f 185/5/4 186/5/4 189/5/4
f 189/5/4 186/5/4 190/5/4
f 187/5/4 188/5/4 191/5/4
f 191/5/4 188/5/4 192/5/4
f 190/5/4 186/5/4 193/5/4
f 189/6/4 190/6/4 193/6/4
f 193/5/4 186/5/4 194/5/4
f 192/5/4 188/5/4 195/5/4
f 191/6/4 192/6/4 195/6/4
f 195/5/4 188/5/4 196/5/4
f 194/5/4 186/5/4 197/5/4
f 193/6/4 194/6/4 197/6/4
f 197/5/4 186/5/4 198/5/4
f 196/5/4 188/5/4 199/5/4
f 195/6/4 196/6/4 199/6/4
f 199/5/4 188/5/4 200/5/4
f 197/6/4 198/6/4 201/6/4
f 193/6/4 197/6/4 201/6/4
f 189/6/4 193/6/4 201/6/4
f 201/6/4 198/6/4 202/6/4
f 199/6/4 200/6/4 203/6/4
f 195/6/4 199/6/4 203/6/4
f 191/6/4 195/6/4 203/6/4
f 203/6/4 200/6/4 204/6/4
f 205/1/4 206/1/4 208/1/4
f 208/1/4 206/1/4 209/1/4
f 209/1/4 206/1/4 210/1/4
f 210/1/4 206/1/4 211/1/4
f 211/1/4 206/1/4 212/1/4
f 212/1/4 206/1/4 213/1/4
f 209/1/4 210/1/4 215/1/4
f 214/1/4 215/1/4 216/1/4
f 215/1/4 210/1/4 217/1/4
f 216/1/4 215/1/4 217/1/4
f 217/1/4 210/1/4 219/1/4
f 218/1/4 219/1/4 220/1/4
f 219/1/4 210/1/4 221/1/4
f 220/1/4 219/1/4 221/1/4
f 221/1/4 210/1/4 223/1/4
f 222/1/4 223/1/4 225/1/4
f 223/1/4 210/1/4 226/1/4
f 225/1/4 223/1/4 226/1/4
f 211/1/4 212/1/4 227/1/4
f 227/1/4 212/1/4 228/1/4
f 213/1/4 206/1/4 229/1/4
f 227/1/4 228/1/4 230/1/4
f 228/1/4 229/1/4 230/1/4
f 225/1/4 226/1/4 230/1/4
f 224/1/4 225/1/4 230/1/4
f 226/1/4 227/1/4 230/1/4
f 230/1/4 229/1/4 231/1/4
f 231/1/4 229/1/4 232/1/4
f 229/1/4 206/1/4 233/1/4
f 232/1/4 229/1/4 233/1/4
f 231/1/4 232/1/4 235/1/4
f 235/1/4 232/1/4 236/1/4
f 233/1/4 206/1/4 237/1/4
f 235/1/4 236/1/4 238/1/4
f 236/1/4 237/1/4 238/1/4
f 234/1/4 235/1/4 238/1/4
f 238/1/4 237/1/4 239/1/4
f 239/1/4 237/1/4 240/1/4
f 240/1/4 237/1/4 241/1/4
f 241/1/4 237/1/4 242/1/4
f 237/1/4 206/1/4 243/1/4
f 242/1/4 237/1/4 243/1/4
f 239/1/4 240/1/4 244/1/4
f 244/1/4 240/1/4 245/1/4
f 245/1/4 240/1/4 247/1/4
f 246/1/4 247/1/4 248/1/4
f 247/1/4 240/1/4 249/1/4
f 248/1/4 247/1/4 249/1/4
f 249/1/4 240/1/4 251/1/4
f 250/1/4 251/1/4 252/1/4
f 251/1/4 240/1/4 253/1/4
f 252/1/4 251/1/4 253/1/4
f 253/1/4 240/1/4 255/1/4
f 255/1/4 240/1/4 256/1/4
f 241/1/4 242/1/4 257/1/4
f 257/1/4 242/1/4 258/1/4
f 243/1/4 206/1/4 259/1/4
f 255/1/4 256/1/4 260/1/4
f 258/1/4 259/1/4 260/1/4
f 257/1/4 258/1/4 260/1/4
f 254/1/4 255/1/4 260/1/4
f 256/1/4 257/1/4 260/1/4
f 206/2/4 207/2/4 261/2/4
f 260/1/4 259/1/4 261/1/4
f 259/1/4 206/1/4 261/1/4
f 261/2/4 207/2/4 262/2/4
f 263/7/4 264/7/4 265/7/4
f 265/7/4 264/7/4 266/7/4
f 267/7/4 268/7/4 269/7/4
f 269/7/4 268/7/4 270/7/4
f 271/7/4 272/7/4 273/7/4
f 273/7/4 272/7/4 274/7/4
f 275/7/4 276/7/4 277/7/4
f 277/7/4 276/7/4 278/7/4
f 279/7/4 280/7/4 281/7/4
f 281/7/4 280/7/4 282/7/4
f 283/7/4 284/7/4 285/7/4
f 285/7/4 284/7/4 286/7/4
f 287/2/4 288/2/4 289/2/4
f 289/2/4 288/2/4 290/2/4
f 291/2/4 292/2/4 293/2/4
f 293/2/4 292/2/4 294/2/4
f 297/1/5 296/1/5 295/1/5
f 298/1/5 296/1/5 297/1/5
f 299/1/5 297/1/5 295/1/5
f 299/3/5 298/3/5 297/3/5
f 300/1/5 296/1/5 298/1/5
f 300/3/5 298/3/5 299/3/5
f 301/1/5 299/1/5 295/1/5
f 302/1/5 299/1/5 301/1/5
f 303/1/5 299/1/5 302/1/5
f 304/1/5 296/1/5 300/1/5
f 305/1/5 296/1/5 304/1/5
f 306/1/5 296/1/5 305/1/5
f 307/2/5 302/2/5 301/2/5
f 308/2/5 302/2/5 307/2/5
f 309/2/5 306/2/5 305/2/5
f 310/2/5 306/2/5 309/2/5
f 313/1/5 312/1/5 311/1/5
f 314/1/5 312/1/5 313/1/5
f 321/1/5 316/1/5 315/1/5
f 321/1/5 317/1/5 316/1/5
f 322/1/5 317/1/5 321/1/5
f 323/1/5 320/1/5 319/1/5
f 323/1/5 319/1/5 318/1/5
f 324/1/5 320/1/5 323/1/5
f 334/1/5 326/1/5 325/1/5
f 334/1/5 327/1/5 326/1/5
f 335/1/5 327/1/5 334/1/5
f 336/1/5 329/1/5 328/1/5
f 336/1/5 330/1/5 329/1/5
f 337/1/5 330/1/5 336/1/5
f 338/1/5 333/1/5 332/1/5
f 338/1/5 332/1/5 331/1/5
f 339/1/5 333/1/5 338/1/5
f 340/2/6 341/2/6 356/2/6
f 342/2/6 343/2/6 357/2/6
f 357/2/6 343/2/6 358/2/6
f 344/2/6 345/2/6 359/2/6
f 359/2/6 345/2/6 360/2/6
f 346/2/6 347/2/6 361/2/6
f 348/2/6 349/2/6 362/2/6
f 350/2/6 351/2/6 363/2/6
f 363/2/6 351/2/6 364/2/6
f 352/2/6 353/2/6 365/2/6
f 365/2/6 353/2/6 366/2/6
f 354/2/6 355/2/6 367/2/6
f 340/2/6 356/2/6 368/2/6
f 357/2/6 358/2/6 368/2/6
f 359/2/6 360/2/6 368/2/6
f 360/2/6 361/2/6 368/2/6
f 356/2/6 357/2/6 368/2/6
f 358/2/6 359/2/6 368/2/6
f 361/2/6 347/2/6 369/2/6
f 368/2/6 361/2/6 369/2/6
f 365/2/6 366/2/6 370/2/6
f 366/2/6 367/2/6 370/2/6
f 364/2/6 365/2/6 370/2/6
f 348/2/6 362/2/6 370/2/6
f 363/2/6 364/2/6 370/2/6
f 362/2/6 363/2/6 370/2/6
f 367/2/6 355/2/6 371/2/6
f 370/2/6 367/2/6 371/2/6
f 372/7/6 373/7/6 384/7/6
f 384/7/6 373/7/6 385/7/6
f 374/7/6 375/7/6 386/7/6
f 386/7/6 375/7/6 387/7/6
f 376/7/6 377/7/6 388/7/6
f 388/7/6 377/7/6 389/7/6
f 378/7/6 379/7/6 390/7/6
f 390/7/6 379/7/6 391/7/6
f 380/7/6 381/7/6 392/7/6
f 392/7/6 381/7/6 393/7/6
f 382/7/6 383/7/6 394/7/6
f 394/7/6 383/7/6 395/7/6
f 396/1/6 397/1/6 402/1/6
f 397/1/6 398/1/6 402/1/6
f 402/1/6 398/1/6 403/1/6
f 400/1/6 401/1/6 404/1/6
f 399/1/6 400/1/6 404/1/6
f 404/1/6 401/1/6 405/1/6
f 406/1/6 407/1/6 408/1/6
f 408/1/6 407/1/6 409/1/6
f 410/1/6 411/1/6 416/1/6
f 411/1/6 412/1/6 416/1/6
f 416/1/6 412/1/6 417/1/6
f 414/1/6 415/1/6 418/1/6
f 413/1/6 414/1/6 418/1/6
f 418/1/6 415/1/6 419/1/6
f 420/1/6 421/1/6 422/1/6
f 422/1/6 421/1/6 423/1/6
f 424/2/6 425/2/6 426/2/6
f 426/2/6 425/2/6 427/2/6
f 424/2/6 426/2/6 428/2/6
f 427/2/6 425/2/6 429/2/6
f 424/2/6 428/2/6 430/2/6
f 428/2/6 429/2/6 430/2/6
f 429/2/6 425/2/6 431/2/6
f 430/2/6 429/2/6 431/2/6
